<svg xmlns="http://www.w3.org/2000/svg" xmlns:xlink="http://www.w3.org/1999/xlink" viewBox="0 0 366.26 130.57"><defs><style>.cls-1,.cls-2{fill:#fff;}.cls-1,.cls-4{stroke:#fff;stroke-miterlimit:10;stroke-width:4px;}.cls-3{clip-path:url(#clip-path);}.cls-4{fill:none;}.cls-5{clip-path:url(#clip-path-2);}</style><clipPath id="clip-path"><path class="cls-1" d="M224.14,94.7c-14.83-1.9-26.32-14.36-26.32-29.41,0-16.36,13.57-29.67,30.26-29.67s30.25,13.31,30.25,29.67-13.57,29.65-30.25,29.65a31.82,31.82,0,0,1-3.94-.24M192.65,65.29c0,18.67,16.22,34.45,35.43,34.45S263.51,84,263.51,65.29s-16.23-34.47-35.43-34.47-35.43,15.79-35.43,34.47"/></clipPath><clipPath id="clip-path-2"><polygon class="cls-1" points="156.57 34.18 137.19 74.82 129.24 91.98 121.3 74.82 101.92 34.18 96.41 34.18 128.73 101.68 129.24 101.68 129.76 101.68 162.07 34.18 156.57 34.18"/></clipPath></defs><title>Ресурс 1</title><g id="Слой_2" data-name="Слой 2"><g id="Layer_1" data-name="Layer 1"><path class="cls-1" d="M19.52,77.06l8.54-17.93L36,42,52.52,77.1Zm16-44.33L3.18,99.78H8.69l8.76-18.39H54.57l8.77,18.39h5.49L36.51,32.73Z"/><polygon class="cls-1" points="302.9 30.9 302.9 99.76 307.96 99.76 307.96 65.33 307.79 41.74 363.18 99.78 364.26 99.78 364.26 32.33 359.2 32.33 359.2 65.34 359.38 88.94 303.94 30.9 302.9 30.9"/><path class="cls-2" d="M224.14,94.7c-14.83-1.9-26.32-14.36-26.32-29.41,0-16.36,13.57-29.67,30.26-29.67s30.25,13.31,30.25,29.67-13.57,29.65-30.25,29.65a31.82,31.82,0,0,1-3.94-.24M192.65,65.29c0,18.67,16.22,34.45,35.43,34.45S263.51,84,263.51,65.29s-16.23-34.47-35.43-34.47-35.43,15.79-35.43,34.47"/><g class="cls-3"><rect class="cls-1" x="181.49" y="18.25" width="93.18" height="94.06" transform="translate(68.49 240.83) rotate(-63.7)"/></g><path class="cls-4" d="M224.14,94.7c-14.83-1.9-26.32-14.36-26.32-29.41,0-16.36,13.57-29.67,30.26-29.67s30.25,13.31,30.25,29.67-13.57,29.65-30.25,29.65a31.82,31.82,0,0,1-3.94-.24M192.65,65.29c0,18.67,16.22,34.45,35.43,34.45S263.51,84,263.51,65.29s-16.23-34.47-35.43-34.47-35.43,15.79-35.43,34.47"/><polygon class="cls-2" points="156.57 34.18 137.19 74.82 129.24 91.98 121.3 74.82 101.92 34.18 96.41 34.18 128.73 101.68 129.24 101.68 129.76 101.68 162.07 34.18 156.57 34.18"/><g class="cls-5"><rect class="cls-1" x="84.44" y="23.55" width="89.6" height="88.76" transform="translate(11.09 153.7) rotate(-63.7)"/></g><polygon class="cls-4" points="156.57 34.18 137.19 74.82 129.24 91.98 121.3 74.82 101.92 34.18 96.41 34.18 128.73 101.68 129.24 101.68 129.76 101.68 162.07 34.18 156.57 34.18"/></g></g></svg>